<?xml version="1.0" encoding="UTF-8" standalone="no"?>
<!-- Created with Inkscape (http://www.inkscape.org/) -->

<svg
   xmlns:dc="http://purl.org/dc/elements/1.1/"
   xmlns:cc="http://creativecommons.org/ns#"
   xmlns:rdf="http://www.w3.org/1999/02/22-rdf-syntax-ns#"
   xmlns:svg="http://www.w3.org/2000/svg"
   xmlns="http://www.w3.org/2000/svg"
   xmlns:sodipodi="http://sodipodi.sourceforge.net/DTD/sodipodi-0.dtd"
   xmlns:inkscape="http://www.inkscape.org/namespaces/inkscape"
   version="1.1"
   id="svg10"
   width="1280"
   height="800"
   viewBox="0 0 1024 640"
   sodipodi:docname="64dd96e7-7589-4dba-a64a-04c451a33900.svg"
   inkscape:version="0.92.4 (5da689c313, 2019-01-14)"
   inkscape:export-filename="C:\Users\Laura\Downloads\fotoblanco.png"
   inkscape:export-xdpi="96"
   inkscape:export-ydpi="96">
  <metadata
     id="metadata16">
    <rdf:RDF>
      <cc:Work
         rdf:about="">
        <dc:format>image/svg+xml</dc:format>
        <dc:type
           rdf:resource="http://purl.org/dc/dcmitype/StillImage" />
        <dc:title />
      </cc:Work>
    </rdf:RDF>
  </metadata>
  <defs
     id="defs14" />
  <sodipodi:namedview
     pagecolor="#ffffff"
     bordercolor="#666666"
     borderopacity="1"
     objecttolerance="10"
     gridtolerance="10"
     guidetolerance="10"
     inkscape:pageopacity="0"
     inkscape:pageshadow="2"
     inkscape:window-width="1366"
     inkscape:window-height="705"
     id="namedview12"
     showgrid="false"
     showguides="true"
     inkscape:guide-bbox="true"
     inkscape:zoom="0.70710678"
     inkscape:cx="559.41936"
     inkscape:cy="406.87382"
     inkscape:window-x="-8"
     inkscape:window-y="-8"
     inkscape:window-maximized="1"
     inkscape:current-layer="svg10"
     scale-x="0.8"
     inkscape:pagecheckerboard="true" />
  <path
     style="opacity:1;fill:#7fff2a;stroke:#ffffff;stroke-width:0;stroke-miterlimit:4;stroke-dasharray:none"
     d="m 582.22749,87.974517 a 34.5,21.25 0 0 0 -31.91992,13.234383 55.373135,57.641792 0 0 0 -52.94336,57.52539 55.373135,57.641792 0 0 0 10.74805,34.00195 55.373135,44.891792 0 0 0 -6.375,20.85351 55.373135,44.891792 0 0 0 55.37891,44.88477 55.373135,44.891792 0 0 0 55.36718,-44.89258 h -42.95703 a 55.373135,57.641792 0 0 0 0.01,-0.004 l 42.94726,-0.0117 a 55.373135,44.891792 0 0 0 -8.09202,-23.17766 3.25,11 0 0 0 0.3457,-4.91406 h -3.01172 l 3.01172,-0.004 a 3.25,11 0 0 0 -0.48828,-5.78515 55.373135,57.641792 0 0 0 3.86133,-20.96094 h -55.37305 l 55.37305,-0.0195 a 55.373135,57.641792 0 0 0 -8.79883,-31.04691 34.5,21.25 0 0 0 17.42578,-18.43359 h -34.5 l 34.5,-0.008 A 34.5,21.25 0 0 0 582.22749,87.974517 Z"
     id="path953"
     inkscape:connector-curvature="0" />
  <path
     style="opacity:1;fill:#7fff2a;stroke:#ffffff;stroke-width:0;stroke-miterlimit:4;stroke-dasharray:none"
     d="m 236.9189,11.474517 a 21.9375,19.875 0 0 0 -21.93164,19.878906 21.9375,19.875 0 0 0 0.16211,2.201172 67.541794,81.219261 0 0 0 -14.61914,-1.988281 67.541794,81.219261 0 0 0 -67.54297,81.218756 67.541794,81.219261 0 0 0 67.54297,81.21875 67.541794,81.219261 0 0 0 67.54101,-81.21875 67.541794,81.219261 0 0 0 -24.4746,-62.52735 21.9375,19.875 0 0 0 15.26562,-18.908203 h -21.9375 l 21.9375,-0.0078 a 21.9375,19.875 0 0 0 -21.94336,-19.8672 z"
     id="path928"
     inkscape:connector-curvature="0" />
  <g
     inkscape:groupmode="layer"
     id="layer1"
     inkscape:label="k">
    <path
       style="fill:#000000;stroke:#000000;stroke-width:1px;stroke-linecap:butt;stroke-linejoin:miter;stroke-opacity:1"
       d="m 14.931288,133.62377 c -4.47761,-4.47761 -10.4477698,20.52239 -11.5671698,39.55224 l 4.10448,310.44776 c 6.0945298,6.34328 21.1442798,5.22388 23.8805998,0 l -0.74627,-152.2388 c -0.34295,-12.52835 11.75557,-69.5347 18.65672,-84.32836 16.07578,-28.55445 72.033542,-50.43289 117.164182,-75.37314 15.54726,-7.83582 37.43781,-29.47761 43.28358,-38.0597 5.84577,-8.45771 23.25871,-42.288553 3.73134,-51.119403 -9.45273,-2.73633 -11.44278,35.945273 -29.10447,52.611943 -13.80597,11.9403 -19.40299,22.38805 -53.73135,36.56716 -46.567442,20.49665 -89.889762,46.25111 -104.477612,75.37314 l -4.47761,-75.37314 c -0.74627,-14.55224 -3.73134,-32.83582 -6.71642,-38.0597 z"
       id="path31"
       inkscape:connector-curvature="0"
       sodipodi:nodetypes="cccccccccccccc" />
    <path
       style="fill:#000000;stroke:#000000;stroke-width:1px;stroke-linecap:butt;stroke-linejoin:miter;stroke-opacity:1"
       d="m 147.02084,160.11631 c -12.43781,-17.28856 -19.2786,-48.75622 -8.20895,-74.253733 8.83084,-20.02488 18.40796,-33.333334 39.92537,-41.044777 22.01492,-6.094527 41.04478,-13.308458 60.44776,-22.761194 8.58209,-4.850746 27.61194,-22.0149264 23.50746,-27.9850754 -4.60199,-6.9651736 -29.35323,15.174129 -46.26865,21.6417914 -17.41294,6.965174 -34.82587,13.930349 -52.23881,20.895523 -17.53731,5.721393 -44.40298,23.383085 -49.25373,51.865672 -6.8408,41.791043 34.0796,76.119403 32.08955,71.641793 z"
       id="path39"
       inkscape:connector-curvature="0"
       sodipodi:nodetypes="ccccccccc" />
  </g>
  <path
     style="fill:#000000;stroke:#000000;stroke-width:1px;stroke-linecap:butt;stroke-linejoin:miter;stroke-opacity:1"
     d="m 176.49845,187.72825 c 52.36319,3.60697 68.90548,-26.36816 74.25374,-37.31343 6.21891,-17.53732 8.70647,-36.19403 -7.08956,-92.910453 -4.47762,-19.278607 5.59702,-53.1094534 16.79105,-50.0000004 12.06468,3.8557214 5.0995,26.7412944 5.97015,42.9104484 5.47263,32.835822 22.1393,70.522395 10.82089,94.029855 -26.1194,56.96517 -84.32836,53.10945 -100.74627,43.28358 z"
     id="path41"
     inkscape:connector-curvature="0"
     sodipodi:nodetypes="ccccccc" />
  <path
     style="fill:#000000;stroke:#000000;stroke-width:1px;stroke-linecap:butt;stroke-linejoin:miter;stroke-opacity:1"
     d="m 42.123168,268.49977 c 22.69074,-13.89588 45.38148,-0.35179 58.573772,8.97076 16.00665,15.30306 24.09792,37.4661 24.27382,55.40762 -6.3323,50.24854 -9.49845,102.08015 -11.08153,150.74562 -1.05538,39.98673 0,73.11346 7.91538,93.04791 7.21179,15.12716 29.72663,32.89278 48.54763,32.71688 37.9938,0 55.76523,-29.78029 61.56983,-41.91719 13.26666,-31.68283 -1.32503,-49.46141 -9.06451,-58.08037 -18.20536,-19.08485 -41.95149,-16.27049 -53.56071,-6.06845 -14.59947,14.59947 -11.25742,30.25432 -5.8046,34.29995 10.37794,12.6646 22.33895,2.11077 35.88303,3.16615 8.97076,1.23128 -7.38768,11.43332 -12.6646,13.19229 -15.12716,5.80461 -49.77892,6.33231 -51.71379,-32.18918 1.05538,-13.42625 20.05229,-38.16799 50.6584,-38.16799 33.94816,0 51.01019,15.77098 60.68454,32.36338 14.15437,23.71741 7.52871,49.56522 1.58308,58.57377 -10.55384,19.17279 -26.91228,39.40097 -69.6553,48.01994 -14.77537,1.40718 -59.10146,-0.87949 -80.736822,-43.27072 -4.7643,-9.66458 -8.6759,-61.95163 -6.85999,-95.68637 0.75734,-57.09269 10.680832,-131.8969 9.498452,-157.07792 0.1759,-24.44971 -10.202042,-34.12406 -18.469212,-43.27071 -8.97076,-10.20204 -23.21843,-14.59947 -39.57687,-14.77537 z"
     id="path43"
     inkscape:connector-curvature="0"
     sodipodi:nodetypes="cccccccccccccccccccccc" />
  <path
     style="fill:#000000;stroke:#000000;stroke-width:1px;stroke-linecap:butt;stroke-linejoin:miter;stroke-opacity:1"
     d="m 195.90144,384.37004 c 4.30431,-26.04441 8.60861,-37.84113 8.95522,-55.97015 0,-8.69763 -2.37461,-22.93602 0.79154,-25.30134 6.39221,-3.43 15.15904,-3.43 22.34279,0.26384 0.0489,18.82333 0.62555,55.06048 4.10448,81.00765 0.99868,9.12121 2.26122,18.39288 9.32836,18.65672 7.0859,0.26385 11.53331,-9.27167 14.92537,-18.65672 7.63385,-21.98948 0.49233,-77.75122 4.69619,-81.00765 4.51511,-3.69384 18.26483,-3.69384 24.62687,0 1.8771,28.23383 1.90728,48.81613 -0.96485,81.00765 -0.0528,8.4616 0.81783,14.54858 2.61194,18.65672 3.09436,5.86475 5.26527,10.07463 10.07463,10.07463 7.71144,0 10.61741,-6.18873 14.1791,-10.07463 4.60198,-5.0995 10.32339,-18.65672 16.04478,-18.65672 5.84577,0 5.34826,11.69154 4.10448,18.65672 -1.2024,4.85075 -2.96998,7.37603 -4.85075,10.07463 -6.52802,8.8233 -15.79602,14.55223 -28.73134,14.55223 -12.68657,0 -28.35821,-4.10448 -32.46269,-20.14925 -1.11164,12.19317 -14.92538,22.38806 -25.37314,22.38806 -7.71144,0 -29.22885,-13.0597 -32.46268,-45.52239 l -1.49254,-14.1791 z"
     id="path4567"
     inkscape:connector-curvature="0"
     sodipodi:nodetypes="cccccccccccccccccccccc" />
  <path
     style="fill:#000000;stroke:#000000;stroke-width:1.00857317px;stroke-linecap:butt;stroke-linejoin:miter;stroke-opacity:1"
     d="m 356.62738,342.5113 c 11.60922,-11.27236 43.79841,-177.67366 6.3323,-177.13689 -37.29021,-0.35785 -33.42047,150.65581 -27.96766,205.04936 0.42649,6.35731 -1.75897,12.52483 -2.63845,18.78725 l 3.69384,-1.61033 c 5.83567,64.12387 59.05941,46.26286 71.23837,1.07355 1.58307,-5.27832 -3.1849,-20.48704 -16.62229,-0.26839 -7.58492,10.71122 -11.9998,25.37527 -20.84382,25.49698 -9.10139,-0.81898 -12.4887,-33.9065 -13.19229,-71.39153 z"
     id="path4569"
     inkscape:connector-curvature="0"
     sodipodi:nodetypes="ccccccccc" />
  <path
     style="fill:#000000;stroke:#000000;stroke-width:1px;stroke-linecap:butt;stroke-linejoin:miter;stroke-opacity:1"
     d="m 448.60611,344.48737 c 0,-16.35845 11.23608,-171.88844 -0.37314,-188.38591 -7.56907,0.53319 -12.07304,47.91628 -14.66607,83.91561 -2.59303,35.99934 -3.64826,75.42779 -5.06611,89.67742 -2.94006,24.82481 -3.78579,33.99292 -4.16849,45.99063 -7.41609,75.66546 63.28095,60.25508 73.34914,13.71998 1.58307,-5.18897 -7.11285,-21.19561 -18.03983,-1.69236 -6.39761,11.84913 -17.54377,22.08867 -26.01466,23.32772 -10.22079,1.43369 -5.90033,-42.89491 -5.02084,-66.55309 z"
     id="path4569-0"
     inkscape:connector-curvature="0"
     sodipodi:nodetypes="ccscccccc" />
  <path
     style="fill:#000000;stroke:#000000;stroke-width:1px;stroke-linecap:butt;stroke-linejoin:miter;stroke-opacity:1"
     d="m 406.72234,288.84765 c 19.68192,-18.39698 34.35077,-33.10011 57.46268,-36.19403 27.23881,-2.86802 55.79684,-7.31911 81.71642,-21.26865 24.71829,-19.8813 36.50814,-61.92565 17.16418,-80.22388 -8.15636,-7.77591 -12.35505,-10.27491 -14.17911,-0.37314 -2.1446,13.39123 3.36232,25.46322 -4.85074,48.8806 -4.3394,10.38796 -17.36368,25.60577 -24.25373,29.10448 -19.09753,9.07228 -47.16582,6.2715 -66.79105,14.55224 l -21.26865,11.94029 c -12.81871,9.8748 -25.10973,26.60959 -25,33.58209 z"
     id="path4611"
     inkscape:connector-curvature="0"
     sodipodi:nodetypes="cccccccccc" />
  <path
     style="fill:#000000;stroke:#000000;stroke-width:1px;stroke-linecap:butt;stroke-linejoin:miter;stroke-opacity:1"
     d="m 502.99099,222.05661 c 7.83582,-30.84577 5.78358,-68.78109 21.26866,-92.53731 20.77114,-29.912943 34.6393,-39.676623 80.22388,-34.328363 -9.52863,40.110113 -0.85189,79.428683 1.49254,117.164183 1.30547,34.30683 -38.02131,59.90676 -77.61194,38.80597 46.51741,36.56716 83.51052,-2.12757 90.2985,-7.83582 17.835,-17.70532 9.57711,-58.14921 5.97015,-87.22381 -1.6791,-23.91047 -0.18657,-51.36572 6.71642,-76.209033 1.99005,-6.2811 -3.85572,-14.42786 -13.0597,-5.97015 -3.66915,2.92288 -6.21891,7.71144 -9.32836,11.56716 -42.84826,-11.3806 -63.30846,-0.18656 -85.44776,13.43284 -14.81013,10.678203 -28.29016,32.338753 -31.34328,57.179183 -4.41542,26.46266 7.21393,43.9701 10.82089,65.95515 z"
     id="path4613"
     inkscape:connector-curvature="0"
     sodipodi:nodetypes="ccccccccccccc" />
  <path
     style="fill:#000000;stroke:#000000;stroke-width:1px;stroke-linecap:butt;stroke-linejoin:miter;stroke-opacity:1"
     d="m 545.15517,310.48944 c -5.47629,0.68506 -9.20398,44.64177 -11.56716,67.2425 -1.11941,18.6928 0.18657,52.16049 33.95522,52.16049 35.96264,0 60.39333,-43.5784 49.63463,-52.16049 -7.94328,0 -31.05153,35.41473 -43.6192,35.96116 -14.39768,0.15048 -16.46319,-19.3206 -17.95573,-35.96116 -1.99005,-20.36193 -2.48756,-65.91042 -10.44776,-67.2425 z"
     id="path4617"
     inkscape:connector-curvature="0"
     sodipodi:nodetypes="ccccccc" />
  <path
     style="fill:#000000;stroke:#000000"
     d="m 544.74945,279.84492 a 12.796522,6.8599911 0 0 0 -12.79687,6.85938 12.796522,6.8599911 0 0 0 10.86523,6.77343 7.1238375,3.5619185 0 0 1 -5.58789,-3.47461 7.1238375,3.5619185 0 0 1 7.12305,-3.5625 7.1238375,3.5619185 0 0 1 7.125,3.5625 7.1238375,3.5619185 0 0 1 -6.89258,3.5586 12.796522,6.8599911 0 0 0 0.16406,0.004 12.796522,6.8599911 0 0 0 12.79688,-6.86132 12.796522,6.8599911 0 0 0 -12.79688,-6.85938 z"
     id="path4619"
     inkscape:connector-curvature="0" />
  <path
     style="fill:#000000;stroke:#000000;stroke-width:1.25px;stroke-linecap:butt;stroke-linejoin:miter;stroke-opacity:1"
     d="M 866.61133 379.7168 C 839.3702 380.47563 784.7223 390.72388 771.92969 424.02539 C 764.93342 443.14853 804.57899 462.73867 832.09766 463.20508 C 780.48074 479.06329 777.8364 491.65666 775.19336 506.58203 C 772.08391 520.10816 787.6321 537.36523 831.63086 537.36523 C 863.96917 537.36523 899.10512 531.61254 897.86133 498.65234 C 898.51923 484.03083 891.86765 466.45332 869.87695 459.93945 C 845.48199 451.95337 791.94749 441.58941 799.91406 423.09375 C 812.81829 393.243 838.3153 389.04516 866.61133 379.7168 z M 829.78906 464.35938 C 838.49554 467.6243 867.72313 489.3898 864.30273 506.80273 C 861.50422 518.46317 850.31075 526.85899 826.52344 526.39258 C 810.19881 526.54805 798.53888 511.31248 805.53516 496.07617 C 815.01899 478.50776 820.77165 474.4651 829.78906 464.35938 z "
     transform="scale(0.8)"
     id="path4626" />
  <path
     style="fill:#000000;stroke:#000000;stroke-width:1.25px;stroke-linecap:butt;stroke-linejoin:miter;stroke-opacity:1"
     d="M 1246.9199 378.83594 C 1219.6788 379.59478 1165.029 389.84302 1152.2363 423.14453 C 1145.2401 442.26767 1184.8857 461.85781 1212.4043 462.32422 C 1160.7874 478.18243 1158.145 490.7758 1155.502 505.70117 C 1152.3926 519.2273 1167.9387 536.48438 1211.9375 536.48438 C 1244.2758 536.48438 1279.4138 530.73168 1278.1699 497.77148 C 1278.3614 480.81788 1272.1742 465.57246 1250.1836 459.05859 C 1225.7885 451.07251 1172.2562 440.70855 1180.2227 422.21289 C 1193.1269 392.36214 1218.6239 388.1643 1246.9199 378.83594 z M 1210.0957 463.47852 C 1218.8022 466.74344 1248.0317 488.50894 1244.6113 505.92188 C 1241.8128 517.58231 1230.6175 525.97813 1206.8301 525.51172 C 1190.5055 525.66719 1178.8455 510.43162 1185.8418 495.19531 C 1195.3257 477.6269 1201.0783 473.58424 1210.0957 463.47852 z "
     transform="scale(0.8)"
     id="path4626-5" />
  <path
     style="fill:#000000;stroke:#000000;stroke-width:1.25px;stroke-linecap:butt;stroke-linejoin:miter;stroke-opacity:1"
     d="M 956.53516 369.8457 C 952.00565 369.96626 947.35144 370.72347 942.63867 372.25391 C 896.30782 389.66684 884.95707 431.79934 883.40234 458.07422 L 868.01172 459.00781 L 897.86133 510.7793 C 911.38745 524.61636 927.24569 538.45355 943.57031 537.36523 C 974.97579 537.52071 1001.0177 537.91023 1029.1582 534.80078 L 1029.3926 506.58203 C 1013.6121 506.58203 980.31665 507.92012 952.58594 506.58203 C 941.70285 505.18278 927.40153 506.11606 912.78711 473.4668 C 969.6901 466.47053 1020.9952 435.84265 1007.9355 401.63867 C 1001.7701 387.07769 980.99447 369.19467 956.53516 369.8457 z M 958.07812 385.82031 C 964.62406 385.704 971.72992 393.01694 974.35352 397.67383 C 977.38523 403.03764 979.25195 411.66502 979.25195 420.06055 C 979.3297 432.73156 937.89628 455.1992 914.41992 455.97656 C 915.4305 416.09783 935.33037 398.83975 954.53125 386.71289 C 955.673 386.11772 956.86591 385.84185 958.07812 385.82031 z "
     transform="scale(0.8)"
     id="path4648" />
  <path
     style="fill:#000000;stroke:#000000;stroke-width:1px;stroke-linecap:butt;stroke-linejoin:miter;stroke-opacity:1"
     d="m 826.27293,321.53278 -3.31925,108.44063 h 26.53769 l 0.26384,-94.72065 c 3.25409,-17.67767 12.44475,-23.48228 19.52455,-23.74612 8.3991,0.1759 14.0278,5.76064 19.7885,23.48228 v 94.98449 h 23.7461 l 0.5277,-94.98449 c -3.2981,-21.81126 -25.3292,-37.15829 -44.3261,-36.93842 -20.05228,-0.35179 -33.11266,12.62063 -42.74303,23.48228 z"
     id="path4681"
     inkscape:connector-curvature="0"
     sodipodi:nodetypes="ccccccccccc" />
  <rect
     style="fill:#000000;stroke:#000000"
     id="rect4685"
     width="8.4888058"
     height="9.1417913"
     x="826.23993"
     y="312.0282"
     rx="0"
     ry="0" />
  <text
     xml:space="preserve"
     style="font-style:normal;font-weight:normal;font-size:40px;line-height:1.25;font-family:sans-serif;letter-spacing:0px;word-spacing:0px;fill:#000000;fill-opacity:1;stroke:none;"
     x="771.92065"
     y="460.05179"
     id="text874"><tspan
       sodipodi:role="line"
       id="tspan872"
       x="771.92065"
       y="460.05179"
       style="font-style:normal;font-variant:normal;font-weight:normal;font-stretch:normal;font-family:'Ink Free';-inkscape-font-specification:'Ink Free';fill:#000000;">Margarita S.L.</tspan></text>
</svg>
