<?xml version="1.0" encoding="UTF-8" standalone="no"?>
<svg
   xmlns:dc="http://purl.org/dc/elements/1.1/"
   xmlns:cc="http://creativecommons.org/ns#"
   xmlns:rdf="http://www.w3.org/1999/02/22-rdf-syntax-ns#"
   xmlns:svg="http://www.w3.org/2000/svg"
   xmlns="http://www.w3.org/2000/svg"
   xmlns:sodipodi="http://sodipodi.sourceforge.net/DTD/sodipodi-0.dtd"
   xmlns:inkscape="http://www.inkscape.org/namespaces/inkscape"
   enable-background="new 0 0 98 150.5"
   height="150.5px"
   id="Capa_1"
   version="1.1"
   viewBox="0 0 98 150.5"
   width="98px"
   xml:space="preserve"
   sodipodi:docname="color.svg"
   inkscape:version="0.92.4 (5da689c313, 2019-01-14)"><metadata
     id="metadata824"><rdf:RDF><cc:Work
         rdf:about=""><dc:format>image/svg+xml</dc:format><dc:type
           rdf:resource="http://purl.org/dc/dcmitype/StillImage" /></cc:Work></rdf:RDF></metadata><defs
     id="defs822" /><sodipodi:namedview
     pagecolor="#ffffff"
     bordercolor="#666666"
     borderopacity="1"
     objecttolerance="10"
     gridtolerance="10"
     guidetolerance="10"
     inkscape:pageopacity="0"
     inkscape:pageshadow="2"
     inkscape:window-width="1366"
     inkscape:window-height="705"
     id="namedview820"
     showgrid="false"
     inkscape:zoom="3.5614618"
     inkscape:cx="49"
     inkscape:cy="75.25"
     inkscape:window-x="-8"
     inkscape:window-y="-8"
     inkscape:window-maximized="1"
     inkscape:current-layer="Capa_1" /><g
     id="g817"><path
       d="M85.757,48.076C70.24,37.755,52.811,34.189,32.146,40.113C16.015,44.738,1.231,63.082,0.087,78.798   c-1.352,18.571,13.114,34.479,38.593,34.452c27.47-0.027,37.753-13.219,37.979-17.228c0.226-4.008-10.716-11.421-3.677-19.039   c8.824-9.547,16.68-1.414,21.438-2.559C99.186,73.283,101.596,58.616,85.757,48.076z M53.887,94.664   c-4.154,0-7.521-3.357-7.521-7.5c0-4.144,3.366-7.5,7.521-7.5s7.521,3.356,7.521,7.5C61.408,91.307,58.041,94.664,53.887,94.664z"
       id="path815"
       style="fill:#2c7558;fill-opacity:1" /></g></svg>