<?xml version="1.0" encoding="UTF-8" standalone="no"?>
<svg
   xmlns:dc="http://purl.org/dc/elements/1.1/"
   xmlns:cc="http://creativecommons.org/ns#"
   xmlns:rdf="http://www.w3.org/1999/02/22-rdf-syntax-ns#"
   xmlns:svg="http://www.w3.org/2000/svg"
   xmlns="http://www.w3.org/2000/svg"
   xmlns:sodipodi="http://sodipodi.sourceforge.net/DTD/sodipodi-0.dtd"
   xmlns:inkscape="http://www.inkscape.org/namespaces/inkscape"
   enable-background="new 0 0 24 24"
   height="24px"
   id="Layer_1"
   version="1.1"
   viewBox="0 0 24 24"
   width="24px"
   xml:space="preserve"
   sodipodi:docname="passwordW.svg"
   inkscape:version="0.92.4 (5da689c313, 2019-01-14)"><metadata
     id="metadata831"><rdf:RDF><cc:Work
         rdf:about=""><dc:format>image/svg+xml</dc:format><dc:type
           rdf:resource="http://purl.org/dc/dcmitype/StillImage" /></cc:Work></rdf:RDF></metadata><defs
     id="defs829" /><sodipodi:namedview
     pagecolor="#ffffff"
     bordercolor="#666666"
     borderopacity="1"
     objecttolerance="10"
     gridtolerance="10"
     guidetolerance="10"
     inkscape:pageopacity="0"
     inkscape:pageshadow="2"
     inkscape:window-width="1366"
     inkscape:window-height="705"
     id="namedview827"
     showgrid="false"
     inkscape:zoom="22.333333"
     inkscape:cx="3.7388058"
     inkscape:cy="4.8358208"
     inkscape:window-x="-8"
     inkscape:window-y="-8"
     inkscape:window-maximized="1"
     inkscape:current-layer="Layer_1" /><path
     clip-rule="evenodd"
     d="M20.002,24.001H4.014c-1.104,0-1.998-0.896-1.998-2.001V11.994  c0-1.105,0.895-2.002,1.998-2.002h0.999V6.991c0-3.868,3.132-7.004,6.995-7.004s6.995,3.136,6.995,7.004v3.001h0.999  c1.104,0,1.998,0.896,1.998,2.002V22C22,23.104,21.105,24.001,20.002,24.001z M16.005,6.991c0-2.21-1.79-4.002-3.997-4.002  S8.011,4.781,8.011,6.991v3.001h7.994V6.991z"
     fill-rule="evenodd"
     id="path824"
     style="fill:#ffffff;fill-opacity:1" /></svg>