<?xml version="1.0" encoding="UTF-8" standalone="no"?>
<svg
   xmlns:dc="http://purl.org/dc/elements/1.1/"
   xmlns:cc="http://creativecommons.org/ns#"
   xmlns:rdf="http://www.w3.org/1999/02/22-rdf-syntax-ns#"
   xmlns:svg="http://www.w3.org/2000/svg"
   xmlns="http://www.w3.org/2000/svg"
   xmlns:sodipodi="http://sodipodi.sourceforge.net/DTD/sodipodi-0.dtd"
   xmlns:inkscape="http://www.inkscape.org/namespaces/inkscape"
   height="16px"
   version="1.1"
   viewBox="0 0 16 16"
   width="16px"
   id="svg4567"
   sodipodi:docname="iconfinder_008_Mail_183573.svg"
   inkscape:version="0.92.4 (5da689c313, 2019-01-14)">
  <metadata
     id="metadata4571">
    <rdf:RDF>
      <cc:Work
         rdf:about="">
        <dc:format>image/svg+xml</dc:format>
        <dc:type
           rdf:resource="http://purl.org/dc/dcmitype/StillImage" />
      </cc:Work>
    </rdf:RDF>
  </metadata>
  <sodipodi:namedview
     pagecolor="#ffffff"
     bordercolor="#666666"
     borderopacity="1"
     objecttolerance="10"
     gridtolerance="10"
     guidetolerance="10"
     inkscape:pageopacity="0"
     inkscape:pageshadow="2"
     inkscape:window-width="1366"
     inkscape:window-height="705"
     id="namedview4569"
     showgrid="false"
     inkscape:zoom="14.75"
     inkscape:cx="8"
     inkscape:cy="8"
     inkscape:window-x="-8"
     inkscape:window-y="-8"
     inkscape:window-maximized="1"
     inkscape:current-layer="Icons with numbers" />
  <title
     id="title4560" />
  <defs
     id="defs4562" />
  <g
     fill="none"
     fill-rule="evenodd"
     id="Icons with numbers"
     stroke="none"
     stroke-width="1">
    <g
       fill="#000000"
       id="Group"
       transform="translate(-336.000000, 0.000000)"
       style="fill:#2c7558;fill-opacity:1">
      <path
         d="M345.731959,8.48453617 L350.681755,12.7272182 C350.501681,12.8954635 350.259495,13 349.993155,13 L338.006845,13 C337.739189,13 337.496237,12.8970552 337.316068,12.7290845 L342.268041,8.48453617 L344,10.0000001 Z M344,9 L337.318245,3.27278178 C337.498319,3.10453648 337.740505,3 338.006845,3 L349.993155,3 C350.260811,3 350.503763,3.10294483 350.683932,3.27091553 Z M351,12.1856084 L346.167358,8.07885766 L351,3.875422 L351,12.1856084 L351,12.1856084 Z M337,12.1856079 L337,3.87815189 L341.832642,8.07885742 L337,12.1856079 L337,12.1856079 Z M337,12.1856079"
         id="Shape"
         style="fill:#2c7558;fill-opacity:1" />
    </g>
  </g>
</svg>
