<?xml version="1.0" encoding="UTF-8" standalone="no"?>
<svg
   xmlns:dc="http://purl.org/dc/elements/1.1/"
   xmlns:cc="http://creativecommons.org/ns#"
   xmlns:rdf="http://www.w3.org/1999/02/22-rdf-syntax-ns#"
   xmlns:svg="http://www.w3.org/2000/svg"
   xmlns="http://www.w3.org/2000/svg"
   xmlns:sodipodi="http://sodipodi.sourceforge.net/DTD/sodipodi-0.dtd"
   xmlns:inkscape="http://www.inkscape.org/namespaces/inkscape"
   enable-background="new 0.464 -2.279 141.732 141.732"
   height="141.732px"
   id="Livello_1"
   version="1.1"
   viewBox="0.464 -2.279 141.732 141.732"
   width="141.732px"
   xml:space="preserve"
   sodipodi:docname="locationW.svg"
   inkscape:version="0.92.4 (5da689c313, 2019-01-14)"><metadata
     id="metadata1409"><rdf:RDF><cc:Work
         rdf:about=""><dc:format>image/svg+xml</dc:format><dc:type
           rdf:resource="http://purl.org/dc/dcmitype/StillImage" /></cc:Work></rdf:RDF></metadata><defs
     id="defs1407" /><sodipodi:namedview
     pagecolor="#ffffff"
     bordercolor="#666666"
     borderopacity="1"
     objecttolerance="10"
     gridtolerance="10"
     guidetolerance="10"
     inkscape:pageopacity="0"
     inkscape:pageshadow="2"
     inkscape:window-width="1366"
     inkscape:window-height="705"
     id="namedview1405"
     showgrid="false"
     inkscape:zoom="1.6651145"
     inkscape:cx="70.865997"
     inkscape:cy="70.865997"
     inkscape:window-x="-8"
     inkscape:window-y="-8"
     inkscape:window-maximized="1"
     inkscape:current-layer="Livello_1" /><g
     id="Livello_111"><path
       d="M0,137.174l34.864-28.711v-58.74L0,78.435V137.174z M70.629,77.856L36.465,49.723v58.74l34.164,28.134V77.856z    M81.893,21.947c0,6.062-4.912,10.975-10.974,10.975c-6.061,0-10.974-4.914-10.974-10.975c0-6.061,4.913-10.975,10.974-10.975   C76.98,10.973,81.893,15.887,81.893,21.947 M90.334,32.922c1.869-3.23,2.943-6.975,2.943-10.975C93.277,9.826,83.451,0,71.331,0   C59.209,0,49.383,9.826,49.383,21.947c0,5.331,1.9,10.215,5.061,14.018l16.906,24.39L88.5,35.61   c0.617-0.772,1.182-1.585,1.691-2.438l0.174-0.25H90.334z M72.27,136.399l33.631-27.694V49.967L72.27,77.662V136.399z    M142.66,137.174V78.435l-35.279-29.05v58.738L142.66,137.174z"
       id="path1400"
       style="fill:#ffffff;fill-opacity:1;stroke:#ffffff;stroke-opacity:1" /></g><g
     id="Livello_1_1_" /></svg>