<?xml version="1.0" encoding="UTF-8" standalone="no"?>
<svg
   xmlns:dc="http://purl.org/dc/elements/1.1/"
   xmlns:cc="http://creativecommons.org/ns#"
   xmlns:rdf="http://www.w3.org/1999/02/22-rdf-syntax-ns#"
   xmlns:svg="http://www.w3.org/2000/svg"
   xmlns="http://www.w3.org/2000/svg"
   xmlns:sodipodi="http://sodipodi.sourceforge.net/DTD/sodipodi-0.dtd"
   xmlns:inkscape="http://www.inkscape.org/namespaces/inkscape"
   height="512px"
   id="Layer_1"
   style="enable-background:new 0 0 512 512;"
   version="1.1"
   viewBox="0 0 512 512"
   width="512px"
   xml:space="preserve"
   sodipodi:docname="telephoneW.svg"
   inkscape:version="0.92.4 (5da689c313, 2019-01-14)"><metadata
     id="metadata822"><rdf:RDF><cc:Work
         rdf:about=""><dc:format>image/svg+xml</dc:format><dc:type
           rdf:resource="http://purl.org/dc/dcmitype/StillImage" /></cc:Work></rdf:RDF></metadata><defs
     id="defs820" /><sodipodi:namedview
     pagecolor="#ffffff"
     bordercolor="#666666"
     borderopacity="1"
     objecttolerance="10"
     gridtolerance="10"
     guidetolerance="10"
     inkscape:pageopacity="0"
     inkscape:pageshadow="2"
     inkscape:window-width="1366"
     inkscape:window-height="705"
     id="namedview818"
     showgrid="false"
     inkscape:zoom="1.046875"
     inkscape:cx="673.43284"
     inkscape:cy="30.567162"
     inkscape:window-x="-8"
     inkscape:window-y="-8"
     inkscape:window-maximized="1"
     inkscape:current-layer="Layer_1" /><path
     d="M415.9,335.5c-14.6-15-56.1-43.1-83.3-43.1c-6.3,0-11.8,1.4-16.3,4.3c-13.3,8.5-23.9,15.1-29,15.1c-2.8,0-5.8-2.5-12.4-8.2  l-1.1-1c-18.3-15.9-22.2-20-29.3-27.4l-1.8-1.9c-1.3-1.3-2.4-2.5-3.5-3.6c-6.2-6.4-10.7-11-26.6-29l-0.7-0.8  c-7.6-8.6-12.6-14.2-12.9-18.3c-0.3-4,3.2-10.5,12.1-22.6c10.8-14.6,11.2-32.6,1.3-53.5c-7.9-16.5-20.8-32.3-32.2-46.2l-1-1.2  c-9.8-12-21.2-18-33.9-18c-14.1,0-25.8,7.6-32,11.6c-0.5,0.3-1,0.7-1.5,1c-13.9,8.8-24,20.9-27.8,33.2c-5.7,18.5-9.5,42.5,17.8,92.4  c23.6,43.2,45,72.2,79,107.1c32,32.8,46.2,43.4,78,66.4c35.4,25.6,69.4,40.3,93.2,40.3c22.1,0,39.5,0,64.3-29.9  C442.3,370.8,431.5,351.6,415.9,335.5z"
     id="path815"
     style="fill:#ffffff;fill-opacity:1" /></svg>